<svg width="1630" height="917" viewBox="0 0 1630 917" fill="none" xmlns="http://www.w3.org/2000/svg">
<g id="Monitor items">
<rect id="LH_F.O. drain tank" x="1091.91" y="848.26" width="11.5833" height="11.5833" stroke="#99A1AF" stroke-width="2"/>
<rect id="LL_F.O. drain tank" x="1091.91" y="869.484" width="11.5833" height="11.5833" stroke="#99A1AF" stroke-width="2"/>
<rect id="TS_F.O. drain tank" x="1040.97" y="860.995" width="24.3177" height="17.526" stroke="#99A1AF" stroke-width="2"/>
<g id="TSH_F.O. drain tank">
<mask id="path-4-inside-1_65_2" fill="white">
<path d="M1168.17 859.146H1214.43V879.521H1168.17V859.146Z"/>
</mask>
<path d="M1168.17 859.146H1214.43V879.521H1168.17V859.146Z" stroke="#99A1AF" stroke-width="4" mask="url(#path-4-inside-1_65_2)"/>
</g>
<path id="pump 2" d="M261.926 170.946C261.241 170.274 260.898 169.45 260.898 168.472C260.898 167.85 261.04 167.216 261.325 166.57C261.609 165.923 262.116 165.055 262.847 163.964L263.626 162.827C263.832 162.538 264.099 162.393 264.429 162.393C264.756 162.393 265.023 162.538 265.23 162.827L266.009 163.964C266.801 165.113 267.332 165.997 267.6 166.614C267.869 167.231 268.003 167.85 268.003 168.47C268.003 169.449 267.66 170.274 266.975 170.946C266.291 171.617 265.45 171.953 264.451 171.953C263.451 171.953 262.61 171.617 261.926 170.946ZM244.321 178.422H256.764C255.638 177.735 254.621 176.9 253.713 175.918C252.807 174.937 252.077 173.838 251.523 172.621H244.321V178.422ZM272.829 175.027C275.137 172.767 276.291 170.032 276.291 166.82C276.291 163.609 275.136 160.874 272.827 158.614C270.517 156.354 267.725 155.222 264.451 155.219C261.176 155.216 258.384 156.348 256.074 158.614C253.765 160.88 252.61 163.615 252.61 166.82C252.61 170.025 253.765 172.762 256.074 175.029C258.384 177.297 261.176 178.428 264.451 178.422C267.725 178.415 270.518 177.284 272.829 175.027ZM277.381 161.02H284.58V155.219H272.138C273.265 155.906 274.281 156.74 275.188 157.723C276.094 158.703 276.825 159.802 277.381 161.02ZM244.321 180.742V181.368C244.321 181.698 244.208 181.973 243.983 182.194C243.757 182.415 243.475 182.526 243.137 182.526C242.799 182.526 242.518 182.415 242.292 182.194C242.066 181.973 241.953 181.697 241.953 181.366V169.677C241.953 169.346 242.066 169.069 242.292 168.848C242.518 168.627 242.799 168.516 243.137 168.516C243.475 168.516 243.757 168.627 243.983 168.848C244.208 169.069 244.321 169.346 244.321 169.677V170.301H250.739C250.568 169.736 250.443 169.166 250.362 168.591C250.282 168.015 250.242 167.425 250.242 166.82C250.242 162.95 251.622 159.662 254.384 156.957C257.145 154.252 260.5 152.899 264.451 152.899H284.58V152.272C284.58 151.943 284.693 151.668 284.918 151.446C285.144 151.225 285.426 151.115 285.764 151.115C286.102 151.115 286.384 151.225 286.609 151.446C286.835 151.668 286.948 151.944 286.948 152.275V163.964C286.948 164.295 286.835 164.571 286.609 164.792C286.384 165.014 286.102 165.124 285.764 165.124C285.426 165.124 285.144 165.014 284.918 164.792C284.693 164.571 284.58 164.295 284.58 163.964V163.34H278.162C278.333 163.906 278.458 164.477 278.539 165.052C278.619 165.628 278.659 166.217 278.659 166.82C278.659 170.69 277.279 173.978 274.518 176.684C271.756 179.389 268.401 180.742 264.451 180.742H244.321Z" fill="#99A1AF"/>
<path id="pump 1" d="M262.87 121.17C262.211 120.517 261.881 119.715 261.881 118.764C261.881 118.159 262.018 117.542 262.291 116.912C262.565 116.283 263.053 115.438 263.757 114.377L264.506 113.271C264.704 112.99 264.961 112.849 265.279 112.849C265.593 112.849 265.85 112.99 266.049 113.271L266.799 114.377C267.562 115.495 268.072 116.355 268.33 116.955C268.589 117.556 268.718 118.158 268.718 118.761C268.718 119.714 268.388 120.517 267.729 121.17C267.071 121.823 266.261 122.15 265.299 122.15C264.338 122.15 263.528 121.823 262.87 121.17ZM245.93 128.444H257.903C256.819 127.776 255.841 126.964 254.967 126.008C254.095 125.054 253.393 123.985 252.86 122.8H245.93V128.444ZM273.362 125.141C275.583 122.942 276.693 120.281 276.693 117.156C276.693 114.032 275.582 111.37 273.36 109.171C271.137 106.973 268.45 105.872 265.299 105.869C262.149 105.866 259.462 106.966 257.239 109.171C255.017 111.376 253.906 114.038 253.906 117.156C253.906 120.275 255.017 122.937 257.239 125.143C259.462 127.35 262.149 128.45 265.299 128.444C268.45 128.438 271.138 127.337 273.362 125.141ZM277.742 111.512H284.669V105.869H272.696C273.781 106.537 274.759 107.349 275.631 108.304C276.504 109.259 277.207 110.328 277.742 111.512ZM245.93 130.701V131.311C245.93 131.632 245.821 131.899 245.604 132.115C245.387 132.33 245.116 132.438 244.79 132.438C244.465 132.438 244.194 132.33 243.977 132.115C243.76 131.899 243.651 131.631 243.651 131.309V119.935C243.651 119.613 243.76 119.345 243.977 119.129C244.194 118.914 244.465 118.807 244.79 118.807C245.116 118.807 245.387 118.914 245.604 119.129C245.821 119.345 245.93 119.613 245.93 119.935V120.543H252.105C251.941 119.993 251.82 119.439 251.743 118.879C251.666 118.319 251.627 117.745 251.627 117.156C251.627 113.391 252.955 110.192 255.612 107.559C258.269 104.927 261.498 103.611 265.299 103.611H284.669V103.002C284.669 102.681 284.778 102.413 284.995 102.198C285.212 101.983 285.483 101.875 285.809 101.875C286.134 101.875 286.405 101.983 286.622 102.198C286.839 102.413 286.948 102.682 286.948 103.004V114.377C286.948 114.699 286.839 114.968 286.622 115.183C286.405 115.398 286.134 115.506 285.809 115.506C285.483 115.506 285.212 115.398 284.995 115.183C284.778 114.968 284.669 114.699 284.669 114.377V113.77H278.494C278.658 114.321 278.778 114.876 278.856 115.436C278.933 115.996 278.972 116.569 278.972 117.156C278.972 120.922 277.644 124.121 274.987 126.753C272.33 129.385 269.1 130.701 265.299 130.701H245.93Z" fill="#99A1AF"/>
<path id="pump 3" d="M263.719 412.363C263.06 411.71 262.73 410.908 262.73 409.956C262.73 409.351 262.867 408.734 263.14 408.105C263.414 407.476 263.902 406.631 264.606 405.57L265.355 404.464C265.553 404.182 265.81 404.042 266.128 404.042C266.442 404.042 266.699 404.182 266.898 404.464L267.648 405.57C268.411 406.688 268.921 407.548 269.179 408.148C269.437 408.749 269.567 409.351 269.567 409.954C269.567 410.907 269.237 411.71 268.578 412.363C267.92 413.016 267.11 413.343 266.148 413.343C265.187 413.343 264.377 413.016 263.719 412.363ZM246.779 419.637H258.752C257.668 418.968 256.69 418.156 255.816 417.201C254.944 416.247 254.242 415.177 253.709 413.993H246.779V419.637ZM274.211 416.334C276.432 414.135 277.542 411.473 277.542 408.349C277.542 405.225 276.431 402.563 274.208 400.364C271.986 398.165 269.299 397.064 266.148 397.061C262.998 397.058 260.311 398.159 258.088 400.364C255.866 402.569 254.755 405.231 254.755 408.349C254.755 411.467 255.866 414.13 258.088 416.336C260.311 418.542 262.998 419.643 266.148 419.637C269.299 419.631 271.987 418.53 274.211 416.334ZM278.591 402.705H285.518V397.061H273.545C274.63 397.73 275.608 398.541 276.48 399.497C277.352 400.451 278.056 401.521 278.591 402.705ZM246.779 421.894V422.504C246.779 422.824 246.67 423.092 246.453 423.307C246.236 423.523 245.964 423.63 245.639 423.63C245.314 423.63 245.043 423.523 244.826 423.307C244.609 423.092 244.5 422.824 244.5 422.501V411.128C244.5 410.806 244.609 410.537 244.826 410.322C245.043 410.107 245.314 409.999 245.639 409.999C245.964 409.999 246.236 410.107 246.453 410.322C246.67 410.537 246.779 410.806 246.779 411.128V411.735H252.954C252.79 411.186 252.669 410.631 252.592 410.071C252.514 409.512 252.476 408.937 252.476 408.349C252.476 404.583 253.804 401.384 256.461 398.752C259.118 396.12 262.347 394.804 266.148 394.804H285.518V394.194C285.518 393.874 285.627 393.606 285.844 393.391C286.061 393.175 286.332 393.068 286.657 393.068C286.983 393.068 287.254 393.175 287.471 393.391C287.688 393.606 287.797 393.874 287.797 394.196V405.57C287.797 405.892 287.688 406.161 287.471 406.376C287.254 406.591 286.983 406.699 286.657 406.699C286.332 406.699 286.061 406.591 285.844 406.376C285.627 406.161 285.518 405.892 285.518 405.57V404.963H279.343C279.507 405.514 279.627 406.069 279.705 406.629C279.782 407.189 279.821 407.762 279.821 408.349C279.821 412.115 278.493 415.313 275.836 417.946C273.178 420.578 269.949 421.894 266.148 421.894H246.779Z" fill="#99A1AF"/>
<path id="pump 4" d="M262.775 462.138C262.09 461.467 261.747 460.643 261.747 459.665C261.747 459.043 261.889 458.409 262.174 457.762C262.458 457.116 262.965 456.247 263.696 455.157L264.475 454.02C264.681 453.731 264.948 453.586 265.278 453.586C265.605 453.586 265.872 453.731 266.079 454.02L266.858 455.157C267.65 456.306 268.181 457.189 268.449 457.807C268.717 458.424 268.852 459.042 268.852 459.663C268.852 460.642 268.509 461.467 267.824 462.138C267.14 462.81 266.299 463.145 265.299 463.145C264.3 463.145 263.459 462.81 262.775 462.138ZM245.17 469.614H257.612C256.487 468.927 255.47 468.093 254.562 467.111C253.656 466.13 252.926 465.031 252.372 463.814H245.17V469.614ZM273.678 466.22C275.986 463.96 277.14 461.224 277.14 458.013C277.14 454.802 275.985 452.066 273.676 449.806C271.366 447.546 268.574 446.415 265.299 446.412C262.025 446.409 259.233 447.54 256.923 449.806C254.614 452.072 253.459 454.808 253.459 458.013C253.459 461.218 254.614 463.954 256.923 466.222C259.233 468.49 262.025 469.62 265.299 469.614C268.574 469.608 271.367 468.477 273.678 466.22ZM278.23 452.212H285.429V446.412H272.986C274.114 447.099 275.13 447.933 276.037 448.915C276.943 449.896 277.674 450.995 278.23 452.212ZM245.17 471.934V472.561C245.17 472.89 245.057 473.166 244.832 473.387C244.606 473.608 244.324 473.719 243.986 473.719C243.648 473.719 243.366 473.608 243.141 473.387C242.915 473.166 242.802 472.89 242.802 472.559V460.869C242.802 460.538 242.915 460.262 243.141 460.041C243.366 459.82 243.648 459.709 243.986 459.709C244.324 459.709 244.606 459.82 244.832 460.041C245.057 460.262 245.17 460.538 245.17 460.869V461.493H251.588C251.417 460.929 251.292 460.359 251.211 459.783C251.131 459.208 251.091 458.618 251.091 458.013C251.091 454.143 252.471 450.855 255.232 448.15C257.994 445.444 261.349 444.092 265.299 444.092H285.429V443.465C285.429 443.136 285.542 442.86 285.767 442.639C285.993 442.418 286.275 442.307 286.613 442.307C286.951 442.307 287.232 442.418 287.458 442.639C287.684 442.86 287.797 443.136 287.797 443.467V455.157C287.797 455.488 287.684 455.764 287.458 455.985C287.232 456.206 286.951 456.317 286.613 456.317C286.275 456.317 285.993 456.206 285.767 455.985C285.542 455.764 285.429 455.488 285.429 455.157V454.533H279.011C279.182 455.099 279.307 455.67 279.388 456.245C279.468 456.82 279.508 457.41 279.508 458.013C279.508 461.883 278.128 465.171 275.366 467.876C272.605 470.582 269.25 471.934 265.299 471.934H245.17Z" fill="#99A1AF"/>
<path id="pump 5" d="M790.073 274.832C789.414 274.178 789.084 273.376 789.084 272.425C789.084 271.82 789.221 271.203 789.495 270.574C789.768 269.945 790.257 269.1 790.96 268.039L791.71 266.932C791.907 266.651 792.165 266.51 792.482 266.51C792.797 266.51 793.053 266.651 793.252 266.932L794.002 268.039C794.765 269.157 795.275 270.016 795.533 270.617C795.792 271.217 795.921 271.819 795.921 272.423C795.921 273.375 795.591 274.178 794.932 274.832C794.274 275.485 793.464 275.811 792.503 275.811C791.541 275.811 790.731 275.485 790.073 274.832ZM773.133 282.105H785.106C784.023 281.437 783.044 280.625 782.171 279.669C781.299 278.715 780.596 277.646 780.063 276.462H773.133V282.105ZM800.565 278.803C802.786 276.604 803.897 273.942 803.897 270.818C803.897 267.693 802.785 265.032 800.563 262.833C798.34 260.634 795.653 259.533 792.503 259.53C789.352 259.527 786.665 260.628 784.443 262.833C782.22 265.038 781.109 267.699 781.109 270.818C781.109 273.936 782.22 276.598 784.443 278.805C786.665 281.011 789.352 282.111 792.503 282.105C795.653 282.099 798.341 280.998 800.565 278.803ZM804.945 265.174H811.872V259.53H799.9C800.984 260.198 801.963 261.01 802.835 261.966C803.707 262.92 804.41 263.989 804.945 265.174ZM773.133 284.363V284.972C773.133 285.293 773.024 285.561 772.807 285.776C772.59 285.991 772.319 286.099 771.994 286.099C771.668 286.099 771.397 285.991 771.18 285.776C770.963 285.561 770.854 285.292 770.854 284.97V273.597C770.854 273.275 770.963 273.006 771.18 272.791C771.397 272.576 771.668 272.468 771.994 272.468C772.319 272.468 772.59 272.576 772.807 272.791C773.024 273.006 773.133 273.275 773.133 273.597V274.204H779.308C779.144 273.655 779.024 273.1 778.946 272.54C778.869 271.98 778.83 271.406 778.83 270.818C778.83 267.052 780.158 263.853 782.816 261.221C785.473 258.589 788.702 257.272 792.503 257.272H811.872V256.663C811.872 256.342 811.981 256.074 812.198 255.859C812.415 255.644 812.687 255.536 813.012 255.536C813.337 255.536 813.608 255.644 813.825 255.859C814.042 256.074 814.151 256.343 814.151 256.665V268.039C814.151 268.361 814.042 268.629 813.825 268.845C813.608 269.06 813.337 269.167 813.012 269.167C812.687 269.167 812.415 269.06 812.198 268.845C811.981 268.629 811.872 268.361 811.872 268.039V267.431H805.697C805.861 267.982 805.982 268.538 806.059 269.097C806.137 269.657 806.175 270.231 806.175 270.818C806.175 274.583 804.847 277.782 802.19 280.414C799.533 283.047 796.304 284.363 792.503 284.363H773.133Z" fill="#99A1AF"/>
<path id="pump 6" d="M789.129 324.607C788.444 323.936 788.101 323.111 788.101 322.134C788.101 321.512 788.244 320.878 788.528 320.231C788.812 319.585 789.319 318.716 790.05 317.626L790.83 316.489C791.035 316.199 791.302 316.055 791.632 316.055C791.959 316.055 792.226 316.199 792.433 316.489L793.212 317.626C794.004 318.775 794.535 319.658 794.803 320.275C795.072 320.892 795.206 321.511 795.206 322.131C795.206 323.111 794.863 323.936 794.178 324.607C793.494 325.278 792.653 325.614 791.654 325.614C790.654 325.614 789.813 325.278 789.129 324.607ZM771.524 332.083H783.967C782.841 331.396 781.824 330.562 780.916 329.579C780.01 328.599 779.28 327.5 778.726 326.282H771.524V332.083ZM800.032 328.688C802.34 326.429 803.494 323.693 803.494 320.482C803.494 317.271 802.34 314.535 800.03 312.275C797.72 310.015 794.928 308.884 791.654 308.881C788.379 308.877 785.587 310.009 783.278 312.275C780.968 314.541 779.813 317.277 779.813 320.482C779.813 323.687 780.968 326.423 783.278 328.691C785.587 330.958 788.379 332.089 791.654 332.083C794.928 332.077 797.721 330.945 800.032 328.688ZM804.584 314.681H811.783V308.881H799.341C800.468 309.567 801.485 310.402 802.391 311.384C803.297 312.365 804.028 313.464 804.584 314.681ZM771.524 334.403V335.03C771.524 335.359 771.412 335.635 771.186 335.856C770.96 336.077 770.678 336.187 770.34 336.187C770.002 336.187 769.721 336.077 769.495 335.856C769.269 335.635 769.156 335.358 769.156 335.027V323.338C769.156 323.007 769.269 322.731 769.495 322.51C769.721 322.288 770.002 322.178 770.34 322.178C770.678 322.178 770.96 322.288 771.186 322.51C771.412 322.731 771.524 323.007 771.524 323.338V323.962H777.942C777.772 323.398 777.646 322.828 777.566 322.252C777.485 321.677 777.445 321.087 777.445 320.482C777.445 316.612 778.825 313.324 781.587 310.618C784.348 307.913 787.704 306.56 791.654 306.56H811.783V305.934C811.783 305.604 811.896 305.329 812.122 305.108C812.347 304.887 812.629 304.776 812.967 304.776C813.305 304.776 813.587 304.887 813.812 305.108C814.038 305.329 814.151 305.605 814.151 305.936V317.626C814.151 317.957 814.038 318.233 813.812 318.454C813.587 318.675 813.305 318.786 812.967 318.786C812.629 318.786 812.347 318.675 812.122 318.454C811.896 318.233 811.783 317.957 811.783 317.626V317.001H805.365C805.536 317.568 805.661 318.138 805.742 318.714C805.822 319.289 805.863 319.878 805.863 320.482C805.863 324.352 804.482 327.64 801.721 330.345C798.959 333.051 795.604 334.403 791.654 334.403H771.524Z" fill="#99A1AF"/>
<path id="pump 7" d="M944.584 260.399C943.924 259.746 943.595 258.944 943.595 257.993C943.595 257.388 943.732 256.771 944.005 256.142C944.278 255.513 944.767 254.667 945.47 253.606L946.22 252.5C946.417 252.219 946.675 252.078 946.992 252.078C947.307 252.078 947.564 252.219 947.763 252.5L948.512 253.606C949.275 254.725 949.786 255.584 950.044 256.185C950.302 256.785 950.431 257.387 950.431 257.991C950.431 258.943 950.102 259.746 949.442 260.399C948.784 261.052 947.975 261.379 947.013 261.379C946.051 261.379 945.242 261.052 944.584 260.399ZM927.643 267.673H939.616C938.533 267.005 937.555 266.193 936.681 265.237C935.809 264.283 935.106 263.214 934.573 262.029H927.643V267.673ZM955.075 264.37C957.296 262.171 958.407 259.51 958.407 256.385C958.407 253.261 957.296 250.599 955.073 248.401C952.85 246.202 950.164 245.101 947.013 245.098C943.862 245.095 941.176 246.196 938.953 248.401C936.73 250.605 935.619 253.267 935.619 256.385C935.619 259.504 936.73 262.166 938.953 264.373C941.176 266.579 943.862 267.679 947.013 267.673C950.164 267.667 952.851 266.566 955.075 264.37ZM959.455 250.742H966.383V245.098H954.41C955.495 245.766 956.473 246.578 957.345 247.534C958.217 248.488 958.92 249.557 959.455 250.742ZM927.643 269.931V270.54C927.643 270.861 927.535 271.129 927.317 271.344C927.1 271.559 926.829 271.667 926.504 271.667C926.179 271.667 925.908 271.559 925.69 271.344C925.473 271.129 925.365 270.86 925.365 270.538V259.164C925.365 258.842 925.473 258.574 925.69 258.359C925.908 258.143 926.179 258.036 926.504 258.036C926.829 258.036 927.1 258.143 927.317 258.359C927.535 258.574 927.643 258.842 927.643 259.164V259.772H933.819C933.655 259.222 933.534 258.668 933.457 258.108C933.379 257.548 933.34 256.974 933.34 256.385C933.34 252.62 934.669 249.421 937.326 246.789C939.983 244.156 943.212 242.84 947.013 242.84H966.383V242.231C966.383 241.91 966.491 241.642 966.709 241.427C966.926 241.212 967.197 241.104 967.522 241.104C967.847 241.104 968.118 241.212 968.336 241.427C968.553 241.642 968.661 241.911 968.661 242.233V253.606C968.661 253.928 968.553 254.197 968.336 254.412C968.118 254.628 967.847 254.735 967.522 254.735C967.197 254.735 966.926 254.628 966.709 254.412C966.491 254.197 966.383 253.928 966.383 253.606V252.999H960.207C960.371 253.55 960.492 254.105 960.569 254.665C960.647 255.225 960.686 255.798 960.686 256.385C960.686 260.151 959.357 263.35 956.7 265.982C954.043 268.614 950.814 269.931 947.013 269.931H927.643Z" fill="#99A1AF"/>
<path id="pump 8" d="M943.64 310.175C942.954 309.504 942.612 308.679 942.612 307.701C942.612 307.08 942.754 306.445 943.038 305.799C943.322 305.152 943.83 304.284 944.561 303.193L945.34 302.056C945.545 301.767 945.813 301.622 946.143 301.622C946.47 301.622 946.736 301.767 946.943 302.056L947.722 303.193C948.515 304.343 949.045 305.226 949.314 305.843C949.582 306.46 949.716 307.079 949.716 307.699C949.716 308.678 949.374 309.504 948.689 310.175C948.005 310.846 947.163 311.182 946.164 311.182C945.165 311.182 944.323 310.846 943.64 310.175ZM926.035 317.651H938.477C937.351 316.964 936.335 316.129 935.427 315.147C934.521 314.166 933.791 313.067 933.236 311.85H926.035V317.651ZM954.543 314.256C956.851 311.996 958.005 309.261 958.005 306.049C958.005 302.838 956.85 300.103 954.54 297.843C952.23 295.583 949.438 294.451 946.164 294.448C942.89 294.445 940.098 295.577 937.788 297.843C935.478 300.109 934.323 302.844 934.323 306.049C934.323 309.255 935.478 311.991 937.788 314.259C940.098 316.526 942.89 317.657 946.164 317.651C949.438 317.645 952.231 316.513 954.543 314.256ZM959.094 300.249H966.293V294.448H953.851C954.978 295.135 955.995 295.97 956.901 296.952C957.807 297.932 958.538 299.032 959.094 300.249ZM926.035 319.971V320.597C926.035 320.927 925.922 321.202 925.696 321.423C925.47 321.645 925.189 321.755 924.851 321.755C924.513 321.755 924.231 321.645 924.005 321.423C923.78 321.202 923.667 320.926 923.667 320.595V308.906C923.667 308.575 923.78 308.299 924.005 308.077C924.231 307.856 924.513 307.746 924.851 307.746C925.189 307.746 925.47 307.856 925.696 308.077C925.922 308.299 926.035 308.575 926.035 308.906V309.53H932.453C932.282 308.965 932.156 308.395 932.076 307.82C931.995 307.244 931.955 306.654 931.955 306.049C931.955 302.179 933.336 298.892 936.097 296.186C938.858 293.481 942.214 292.128 946.164 292.128H966.293V291.502C966.293 291.172 966.406 290.897 966.632 290.676C966.858 290.454 967.14 290.344 967.477 290.344C967.815 290.344 968.097 290.454 968.323 290.676C968.549 290.897 968.661 291.173 968.661 291.504V303.193C968.661 303.524 968.549 303.8 968.323 304.022C968.097 304.243 967.815 304.353 967.477 304.353C967.14 304.353 966.858 304.243 966.632 304.022C966.406 303.8 966.293 303.524 966.293 303.193V302.569H959.876C960.046 303.135 960.172 303.706 960.252 304.281C960.333 304.857 960.373 305.446 960.373 306.049C960.373 309.92 958.992 313.207 956.231 315.913C953.47 318.618 950.114 319.971 946.164 319.971H926.035Z" fill="#99A1AF"/>
<path id="pump 9" d="M943.735 825.806C943.076 825.152 942.746 824.35 942.746 823.399C942.746 822.794 942.883 822.177 943.156 821.548C943.43 820.919 943.918 820.074 944.621 819.013L945.371 817.906C945.569 817.625 945.826 817.484 946.144 817.484C946.458 817.484 946.715 817.625 946.914 817.906L947.664 819.013C948.426 820.131 948.937 820.99 949.195 821.591C949.453 822.191 949.582 822.793 949.582 823.397C949.582 824.349 949.253 825.152 948.593 825.806C947.935 826.459 947.126 826.785 946.164 826.785C945.202 826.785 944.393 826.459 943.735 825.806ZM926.794 833.079H938.767C937.684 832.411 936.706 831.599 935.832 830.643C934.96 829.689 934.257 828.62 933.724 827.436H926.794V833.079ZM954.226 829.777C956.447 827.578 957.558 824.916 957.558 821.792C957.558 818.667 956.447 816.006 954.224 813.807C952.002 811.608 949.315 810.507 946.164 810.504C943.013 810.501 940.327 811.602 938.104 813.807C935.881 816.012 934.77 818.673 934.77 821.792C934.77 824.91 935.881 827.572 938.104 829.779C940.327 831.985 943.013 833.085 946.164 833.079C949.315 833.073 952.002 831.972 954.226 829.777ZM958.606 816.148H965.534V810.504H953.561C954.646 811.172 955.624 811.984 956.496 812.94C957.368 813.894 958.071 814.963 958.606 816.148ZM926.794 835.337V835.946C926.794 836.267 926.686 836.535 926.469 836.75C926.251 836.965 925.98 837.073 925.655 837.073C925.33 837.073 925.059 836.965 924.841 836.75C924.624 836.535 924.516 836.266 924.516 835.944V824.571C924.516 824.249 924.624 823.98 924.841 823.765C925.059 823.55 925.33 823.442 925.655 823.442C925.98 823.442 926.251 823.55 926.469 823.765C926.686 823.98 926.794 824.249 926.794 824.571V825.178H932.97C932.806 824.629 932.685 824.074 932.608 823.514C932.53 822.954 932.491 822.38 932.491 821.792C932.491 818.026 933.82 814.827 936.477 812.195C939.134 809.563 942.363 808.246 946.164 808.246H965.534V807.637C965.534 807.316 965.642 807.048 965.86 806.833C966.077 806.618 966.348 806.51 966.673 806.51C966.998 806.51 967.269 806.618 967.487 806.833C967.704 807.048 967.812 807.317 967.812 807.639V819.013C967.812 819.335 967.704 819.603 967.487 819.819C967.269 820.034 966.998 820.141 966.673 820.141C966.348 820.141 966.077 820.034 965.86 819.819C965.642 819.603 965.534 819.335 965.534 819.013V818.405H959.358C959.522 818.956 959.643 819.512 959.721 820.071C959.798 820.631 959.837 821.205 959.837 821.792C959.837 825.557 958.508 828.756 955.851 831.388C953.194 834.021 949.965 835.337 946.164 835.337H926.794Z" fill="#99A1AF"/>
<path id="pump 10" d="M942.791 875.581C942.105 874.91 941.763 874.085 941.763 873.108C941.763 872.486 941.905 871.852 942.189 871.205C942.473 870.559 942.981 869.69 943.712 868.6L944.491 867.463C944.696 867.173 944.964 867.029 945.294 867.029C945.621 867.029 945.887 867.173 946.094 867.463L946.873 868.6C947.666 869.749 948.196 870.632 948.465 871.249C948.733 871.866 948.867 872.485 948.867 873.105C948.867 874.085 948.525 874.91 947.84 875.581C947.156 876.252 946.314 876.588 945.315 876.588C944.316 876.588 943.474 876.252 942.791 875.581ZM925.186 883.057H937.628C936.502 882.37 935.486 881.536 934.578 880.553C933.672 879.573 932.942 878.474 932.387 877.256H925.186V883.057ZM953.694 879.662C956.002 877.403 957.156 874.667 957.156 871.456C957.156 868.245 956.001 865.509 953.691 863.249C951.381 860.989 948.589 859.858 945.315 859.855C942.041 859.851 939.249 860.983 936.939 863.249C934.629 865.515 933.474 868.251 933.474 871.456C933.474 874.661 934.629 877.397 936.939 879.665C939.249 881.932 942.041 883.063 945.315 883.057C948.589 883.051 951.382 881.919 953.694 879.662ZM958.245 865.655H965.444V859.855H953.002C954.129 860.541 955.146 861.376 956.052 862.358C956.958 863.339 957.689 864.438 958.245 865.655ZM925.186 885.377V886.004C925.186 886.333 925.073 886.608 924.847 886.83C924.621 887.051 924.34 887.161 924.002 887.161C923.664 887.161 923.382 887.051 923.156 886.83C922.931 886.608 922.818 886.332 922.818 886.001V874.312C922.818 873.981 922.931 873.705 923.156 873.484C923.382 873.262 923.664 873.152 924.002 873.152C924.34 873.152 924.621 873.262 924.847 873.484C925.073 873.705 925.186 873.981 925.186 874.312V874.936H931.604C931.433 874.372 931.307 873.801 931.227 873.226C931.146 872.651 931.106 872.061 931.106 871.456C931.106 867.586 932.487 864.298 935.248 861.592C938.009 858.887 941.365 857.534 945.315 857.534H965.444V856.908C965.444 856.578 965.557 856.303 965.783 856.082C966.009 855.861 966.291 855.75 966.628 855.75C966.966 855.75 967.248 855.861 967.474 856.082C967.7 856.303 967.812 856.579 967.812 856.91V868.6C967.812 868.931 967.7 869.207 967.474 869.428C967.248 869.649 966.966 869.76 966.628 869.76C966.291 869.76 966.009 869.649 965.783 869.428C965.557 869.207 965.444 868.931 965.444 868.6V867.975H959.027C959.197 868.542 959.323 869.112 959.403 869.688C959.484 870.263 959.524 870.852 959.524 871.456C959.524 875.326 958.143 878.614 955.382 881.319C952.621 884.024 949.265 885.377 945.315 885.377H925.186Z" fill="#99A1AF"/>
<path id="pump 11" d="M79.4953 706.951C78.836 706.298 78.5063 705.496 78.5063 704.545C78.5063 703.94 78.643 703.323 78.9165 702.694C79.1899 702.065 79.6784 701.22 80.3817 700.158L81.1315 699.052C81.329 698.771 81.5865 698.63 81.904 698.63C82.2184 698.63 82.4752 698.771 82.6742 699.052L83.4239 700.158C84.1866 701.277 84.697 702.136 84.9553 702.737C85.2135 703.337 85.3427 703.939 85.3427 704.543C85.3427 705.495 85.013 706.298 84.3537 706.951C83.6959 707.605 82.8861 707.931 81.9245 707.931C80.9628 707.931 80.1531 707.605 79.4953 706.951ZM62.5548 714.225H74.5276C73.4444 713.557 72.466 712.745 71.5925 711.789C70.7205 710.835 70.0178 709.766 69.4846 708.581H62.5548V714.225ZM89.9868 710.922C92.2079 708.724 93.3184 706.062 93.3184 702.938C93.3184 699.813 92.2071 697.151 89.9845 694.953C87.762 692.754 85.0753 691.653 81.9245 691.65C78.7737 691.647 76.087 692.748 73.8644 694.953C71.6419 697.157 70.5306 699.819 70.5306 702.938C70.5306 706.056 71.6419 708.718 73.8644 710.925C76.087 713.131 78.7737 714.231 81.9245 714.225C85.0753 714.219 87.7627 713.118 89.9868 710.922ZM94.3666 697.294H101.294V691.65H89.3214C90.4061 692.318 91.3845 693.13 92.2565 694.086C93.1285 695.04 93.8319 696.109 94.3666 697.294ZM62.5548 716.483V717.092C62.5548 717.413 62.4462 717.681 62.229 717.896C62.0117 718.111 61.7405 718.219 61.4154 718.219C61.0903 718.219 60.8192 718.111 60.6019 717.896C60.3847 717.681 60.276 717.412 60.276 717.09V705.717C60.276 705.394 60.3847 705.126 60.6019 704.911C60.8192 704.695 61.0903 704.588 61.4154 704.588C61.7405 704.588 62.0117 704.695 62.229 704.911C62.4462 705.126 62.5548 705.394 62.5548 705.717V706.324H68.7303C68.5663 705.774 68.4455 705.22 68.368 704.66C68.2905 704.1 68.2518 703.526 68.2518 702.938C68.2518 699.172 69.5803 695.973 72.2374 693.341C74.8944 690.708 78.1235 689.392 81.9245 689.392H101.294V688.783C101.294 688.462 101.403 688.194 101.62 687.979C101.837 687.764 102.108 687.656 102.434 687.656C102.759 687.656 103.03 687.764 103.247 687.979C103.464 688.194 103.573 688.463 103.573 688.785V700.158C103.573 700.481 103.464 700.749 103.247 700.964C103.03 701.18 102.759 701.287 102.434 701.287C102.108 701.287 101.837 701.18 101.62 700.964C101.403 700.749 101.294 700.481 101.294 700.158V699.551H95.1186C95.2827 700.102 95.4035 700.657 95.481 701.217C95.5584 701.777 95.5972 702.351 95.5972 702.938C95.5972 706.703 94.2686 709.902 91.6116 712.534C88.9545 715.167 85.7255 716.483 81.9245 716.483H62.5548Z" fill="#99A1AF"/>
<path id="pump 12" d="M78.5511 756.727C77.8659 756.056 77.5233 755.231 77.5233 754.254C77.5233 753.632 77.6654 752.998 77.9496 752.351C78.2337 751.704 78.7413 750.836 79.4723 749.745L80.2514 748.608C80.4566 748.319 80.7242 748.175 81.0542 748.175C81.381 748.175 81.6478 748.319 81.8546 748.608L82.6338 749.745C83.4263 750.895 83.9568 751.778 84.2252 752.395C84.4935 753.012 84.6277 753.631 84.6277 754.251C84.6277 755.23 84.2852 756.056 83.6 756.727C82.9164 757.398 82.0749 757.734 81.0755 757.734C80.0762 757.734 79.2347 757.398 78.5511 756.727ZM60.9463 764.203H73.3885C72.2629 763.516 71.2461 762.681 70.3383 761.699C69.4321 760.719 68.702 759.62 68.1478 758.402H60.9463V764.203ZM89.454 760.808C91.7622 758.548 92.9163 755.813 92.9163 752.602C92.9163 749.39 91.7614 746.655 89.4517 744.395C87.1419 742.135 84.3499 741.003 81.0755 741C77.8012 740.997 75.0091 742.129 72.6994 744.395C70.3897 746.661 69.2348 749.397 69.2348 752.602C69.2348 755.807 70.3897 758.543 72.6994 760.811C75.0091 763.078 77.8012 764.209 81.0755 764.203C84.3499 764.197 87.1427 763.065 89.454 760.808ZM94.0056 746.801H101.205V741H88.7625C89.8898 741.687 90.9065 742.522 91.8127 743.504C92.7189 744.485 93.4499 745.584 94.0056 746.801ZM60.9463 766.523V767.149C60.9463 767.479 60.8334 767.754 60.6076 767.975C60.3819 768.197 60.1001 768.307 59.7622 768.307C59.4243 768.307 59.1425 768.197 58.9168 767.975C58.691 767.754 58.5781 767.478 58.5781 767.147V755.458C58.5781 755.127 58.691 754.851 58.9168 754.629C59.1425 754.408 59.4243 754.298 59.7622 754.298C60.1001 754.298 60.3819 754.408 60.6076 754.629C60.8334 754.851 60.9463 755.127 60.9463 755.458V756.082H67.364C67.1934 755.517 67.0679 754.947 66.9874 754.372C66.9069 753.796 66.8666 753.206 66.8666 752.602C66.8666 748.731 68.2473 745.444 71.0085 742.738C73.7698 740.033 77.1255 738.68 81.0755 738.68H101.205V738.054C101.205 737.724 101.318 737.449 101.543 737.228C101.769 737.006 102.051 736.896 102.389 736.896C102.727 736.896 103.009 737.006 103.234 737.228C103.46 737.449 103.573 737.725 103.573 738.056V749.745C103.573 750.076 103.46 750.352 103.234 750.574C103.009 750.795 102.727 750.905 102.389 750.905C102.051 750.905 101.769 750.795 101.543 750.574C101.318 750.352 101.205 750.076 101.205 749.745V749.121H94.7871C94.9576 749.687 95.0831 750.258 95.1636 750.834C95.2441 751.409 95.2844 751.998 95.2844 752.602C95.2844 756.472 93.9038 759.759 91.1425 762.465C88.3813 765.17 85.0256 766.523 81.0755 766.523H60.9463Z" fill="#99A1AF"/>
<rect id="TS_D.O.service.tank" x="483.208" y="156.359" width="24.3177" height="17.526" stroke="#99A1AF" stroke-width="2"/>
<rect id="LL_D.O.service.tank" x="486.604" y="134.286" width="11.5833" height="11.5833" stroke="#99A1AF" stroke-width="2"/>
<rect id="LC_D.O.service.tank" x="486.604" y="113.062" width="11.5833" height="11.5833" stroke="#99A1AF" stroke-width="2"/>
<rect id="LH_D.O.service.tank" x="486.604" y="91.8385" width="11.5833" height="11.5833" stroke="#99A1AF" stroke-width="2"/>
<g id="TSH_D.O.service.tank">
<mask id="path-21-inside-2_65_2" fill="white">
<path d="M393.068 155.359H439.336V175.734H393.068V155.359Z"/>
</mask>
<path d="M393.068 155.359H439.336V175.734H393.068V155.359Z" stroke="#99A1AF" stroke-width="4" mask="url(#path-21-inside-2_65_2)"/>
</g>
<rect id="TS_H.O.settling.tank" x="482.359" y="445.854" width="24.3177" height="17.526" stroke="#99A1AF" stroke-width="2"/>
<g id="TSH_H.O.settling.tank">
<mask id="path-23-inside-3_65_2" fill="white">
<path d="M392.219 444.854H438.487V465.229H392.219V444.854Z"/>
</mask>
<path d="M392.219 444.854H438.487V465.229H392.219V444.854Z" stroke="#99A1AF" stroke-width="4" mask="url(#path-23-inside-3_65_2)"/>
</g>
<rect id="LL_H.O.settling.tank" x="485.755" y="423.781" width="11.5833" height="11.5833" stroke="#99A1AF" stroke-width="2"/>
<rect id="LC_H.O.settling.tank" x="485.755" y="402.557" width="11.5833" height="11.5833" stroke="#99A1AF" stroke-width="2"/>
<rect id="LH_H.O.settling.tank" x="485.755" y="381.333" width="11.5833" height="11.5833" stroke="#99A1AF" stroke-width="2"/>
<rect id="TS_H.O.purifier.No2" x="640.266" y="725.161" width="26.0156" height="18.375" stroke="#99A1AF" stroke-width="2"/>
<rect id="TS_H.O.purifier.No1" x="509.526" y="724.312" width="26.0156" height="18.375" stroke="#99A1AF" stroke-width="2"/>
<rect id="TS_H.O.purifier.No3" x="771.005" y="726.01" width="26.0156" height="18.375" stroke="#99A1AF" stroke-width="2"/>
<rect id="LS_Sludge.tank" x="211.542" y="698.844" width="11.5833" height="11.5833" stroke="#99A1AF" stroke-width="2"/>
<rect id="TS2_H.O.service.tank" x="665.734" y="269.271" width="24.3177" height="17.526" stroke="#99A1AF" stroke-width="2"/>
<rect id="TS1_H.O.service.tank" x="665.734" y="308.323" width="24.3177" height="17.526" stroke="#99A1AF" stroke-width="2"/>
<g id="TSH_H.O.service.tank">
<mask id="path-33-inside-4_65_2" fill="white">
<path d="M575.594 307.323H621.862V327.698H575.594V307.323Z"/>
</mask>
<path d="M575.594 307.323H621.862V327.698H575.594V307.323Z" stroke="#99A1AF" stroke-width="4" mask="url(#path-33-inside-4_65_2)"/>
</g>
<rect id="LL_H.O.service.tank" x="631.776" y="283.703" width="11.5833" height="11.5833" stroke="#99A1AF" stroke-width="2"/>
<text id="Flow18" x="1504.42" y="679.891" fill="#fdfdfd00" font-family="Consolas, monospace" font-size="12" font-weight="700" dominant-baseline="hanging">100 L/H</text>
<text id="Flow17" x="1504.42" y="628.953" fill="#fdfdfd00" font-family="Consolas, monospace" font-size="12" font-weight="700" dominant-baseline="hanging">100 L/H</text>
<text id="Flow16" x="1504.42" y="487.177" fill="#fdfdfd00" font-family="Consolas, monospace" font-size="12" font-weight="700" dominant-baseline="hanging">100 L/H</text>
<text id="Flow15" x="1502.72" y="435.391" fill="#fdfdfd00" font-family="Consolas, monospace" font-size="12" font-weight="700" dominant-baseline="hanging">100 L/H</text>
<text id="Flow14" x="1505.27" y="293.615" fill="#fdfdfd00" font-family="Consolas, monospace" font-size="12" font-weight="700" dominant-baseline="hanging">100 L/H</text>
<text id="Flow13" x="1504.42" y="242.677" fill="#fdfdfd00" font-family="Consolas, monospace" font-size="12" font-weight="700" dominant-baseline="hanging">100 L/H</text>
<text id="Flow12" x="1502.72" y="99.2031" fill="#fdfdfd00" font-family="Consolas, monospace" font-size="12" font-weight="700" dominant-baseline="hanging">100 L/H</text>
<text id="Flow11" x="1501.87" y="48.2656" fill="#fdfdfd00" font-family="Consolas, monospace" font-size="12" font-weight="700" dominant-baseline="hanging">100 L/H</text>
<text id="Flow10" x="1155.5" y="733.375" fill="#fdfdfd00" font-family="Consolas, monospace" font-size="12" font-weight="700" dominant-baseline="hanging">100 L/H</text>
<text id="Flow9" x="1155.5" y="679.891" fill="#fdfdfd00" font-family="Consolas, monospace" font-size="12" font-weight="700" dominant-baseline="hanging">100 L/H</text>
<text id="Flow8" x="1158.04" y="539.812" fill="#fdfdfd00" font-family="Consolas, monospace" font-size="12" font-weight="700" dominant-baseline="hanging">100 L/H</text>
<text id="Flow7" x="1158.04" y="484.63" fill="#fdfdfd00" font-family="Consolas, monospace" font-size="12" font-weight="700" dominant-baseline="hanging">100 L/H</text>
<text id="Flow6" x="1157.2" y="347.099" fill="#fdfdfd00" font-family="Consolas, monospace" font-size="12" font-weight="700" dominant-baseline="hanging">100 L/H</text>
<text id="Flow5" x="1157.2" y="290.219" fill="#fdfdfd00" font-family="Consolas, monospace" font-size="12" font-weight="700" dominant-baseline="hanging">100 L/H</text>
<text id="Flow4" x="1158.04" y="148.443" fill="#fdfdfd00" font-family="Consolas, monospace" font-size="12" font-weight="700" dominant-baseline="hanging">100 L/H</text>
<text id="Flow3" x="1158.04" y="92.4115" fill="#fdfdfd00" font-family="Consolas, monospace" font-size="12" font-weight="700" dominant-baseline="hanging">100 L/H</text>
<text id="Flow2" x="329.462" y="450.672" fill="#fdfdfd00" font-family="Consolas, monospace" font-size="12" font-weight="700" dominant-baseline="hanging">100 L/H</text>
<text id="Flow1" x="329.462" y="162.026" fill="#fdfdfd00" font-family="Consolas, monospace" font-size="12" font-weight="700" dominant-baseline="hanging">100 L/H</text>
</g>
</svg>

