<svg width="20" height="20" viewBox="0 0 20 20" fill="none" xmlns="http://www.w3.org/2000/svg">
<g clip-path="url(#clip0_38_63)">
<path d="M17.5 13.3333H14.1667C13.7064 13.3333 13.3333 13.7064 13.3333 14.1667V17.5C13.3333 17.9602 13.7064 18.3333 14.1667 18.3333H17.5C17.9602 18.3333 18.3333 17.9602 18.3333 17.5V14.1667C18.3333 13.7064 17.9602 13.3333 17.5 13.3333Z" stroke="#99A1AF" stroke-width="1.66667" stroke-linecap="round" stroke-linejoin="round"/>
<path d="M5.83333 13.3333H2.5C2.03976 13.3333 1.66667 13.7064 1.66667 14.1667V17.5C1.66667 17.9602 2.03976 18.3333 2.5 18.3333H5.83333C6.29357 18.3333 6.66667 17.9602 6.66667 17.5V14.1667C6.66667 13.7064 6.29357 13.3333 5.83333 13.3333Z" stroke="#99A1AF" stroke-width="1.66667" stroke-linecap="round" stroke-linejoin="round"/>
<path d="M11.6667 1.66666H8.33333C7.8731 1.66666 7.5 2.03975 7.5 2.49999V5.83332C7.5 6.29356 7.8731 6.66666 8.33333 6.66666H11.6667C12.1269 6.66666 12.5 6.29356 12.5 5.83332V2.49999C12.5 2.03975 12.1269 1.66666 11.6667 1.66666Z" stroke="#99A1AF" stroke-width="1.66667" stroke-linecap="round" stroke-linejoin="round"/>
<path d="M4.16667 13.3333V10.8333C4.16667 10.6123 4.25446 10.4004 4.41074 10.2441C4.56703 10.0878 4.77899 10 5 10H15C15.221 10 15.433 10.0878 15.5893 10.2441C15.7455 10.4004 15.8333 10.6123 15.8333 10.8333V13.3333" stroke="#99A1AF" stroke-width="1.66667" stroke-linecap="round" stroke-linejoin="round"/>
<path d="M10 9.99999V6.66666" stroke="#99A1AF" stroke-width="1.66667" stroke-linecap="round" stroke-linejoin="round"/>
</g>
<defs>
<clipPath id="clip0_38_63">
<rect width="20" height="20" fill="white"/>
</clipPath>
</defs>
</svg>
