<svg width="44" height="31" viewBox="0 0 44 31" fill="none" xmlns="http://www.w3.org/2000/svg">
<path d="M19.2193 19.2951C18.5599 18.642 18.2303 17.8398 18.2303 16.8886C18.2303 16.2836 18.367 15.6665 18.6404 15.0374C18.9139 14.4083 19.4023 13.5633 20.1057 12.5022L20.8554 11.396C21.0529 11.1146 21.3104 10.9739 21.6279 10.9739C21.9424 10.9739 22.1991 11.1146 22.3982 11.396L23.1479 12.5022C23.9105 13.6205 24.421 14.4798 24.6792 15.0803C24.9375 15.6808 25.0666 16.2828 25.0666 16.8864C25.0666 17.839 24.7369 18.642 24.0776 19.2951C23.4198 19.9483 22.6101 20.2749 21.6484 20.2749C20.6868 20.2749 19.8771 19.9483 19.2193 19.2951ZM2.27878 26.5689H14.2515C13.1683 25.9007 12.19 25.0887 11.3164 24.133C10.4444 23.1789 9.7418 22.1095 9.20856 20.9251H2.27878V26.5689ZM29.7108 23.2662C31.9318 21.0673 33.0424 18.4057 33.0424 15.2813C33.0424 12.1568 31.9311 9.49519 29.7085 7.29635C27.4859 5.09751 24.7992 3.99659 21.6484 3.99358C18.4976 3.99057 15.811 5.09149 13.5884 7.29635C11.3658 9.50121 10.2545 12.1628 10.2545 15.2813C10.2545 18.3997 11.3658 21.062 13.5884 23.2684C15.811 25.4748 18.4976 26.5749 21.6484 26.5689C24.7992 26.5629 27.4867 25.462 29.7108 23.2662ZM34.0906 9.63741H41.0181V3.99358H29.0454C30.1301 4.66181 31.1084 5.47377 31.9804 6.42946C32.8525 7.38364 33.5558 8.45296 34.0906 9.63741ZM2.27878 28.8265V29.436C2.27878 29.7566 2.17016 30.0245 1.95292 30.2397C1.73567 30.4549 1.4645 30.5625 1.13939 30.5625C0.814285 30.5625 0.54311 30.4549 0.325866 30.2397C0.108622 30.0245 0 29.7558 0 29.4337V18.0603C0 17.7382 0.108622 17.4696 0.325866 17.2543C0.54311 17.0391 0.814285 16.9315 1.13939 16.9315C1.4645 16.9315 1.73567 17.0391 1.95292 17.2543C2.17016 17.4696 2.27878 17.7382 2.27878 18.0603V18.6676H8.45428C8.29021 18.1182 8.16944 17.5636 8.09196 17.0037C8.01448 16.4439 7.97574 15.8697 7.97574 15.2813C7.97574 11.5157 9.30427 8.31676 11.9613 5.68447C14.6184 3.05219 17.8474 1.73604 21.6484 1.73604H41.0181V1.12651C41.0181 0.80594 41.1267 0.538046 41.344 0.322828C41.5612 0.107609 41.8324 0 42.1575 0C42.4826 0 42.7538 0.107609 42.971 0.322828C43.1883 0.538046 43.2969 0.806692 43.2969 1.12877V12.5022C43.2969 12.8243 43.1883 13.0929 42.971 13.3082C42.7538 13.5234 42.4826 13.631 42.1575 13.631C41.8324 13.631 41.5612 13.5234 41.344 13.3082C41.1267 13.0929 41.0181 12.8243 41.0181 12.5022V11.8949H34.8426C35.0067 12.4458 35.1274 13.0011 35.2049 13.561C35.2824 14.1209 35.3211 14.6943 35.3211 15.2813C35.3211 19.0468 33.9926 22.2457 31.3355 24.878C28.6785 27.5103 25.4494 28.8265 21.6484 28.8265H2.27878Z" fill="#99A1AF"/>
</svg>
